X.2011.DVDRip.XVID.AC3.HQ.Hive-CM8 


Thx Hive


CM8 Doing It Right The First Time


Source: DVD-R


Encode:
here is the next quality movie
DVD had nice quality, was just interlaced
did the usual sharpness, brightness, rgb, denoise
looks like a interesting movie  -  enjoy!


Video: 720x304 @bitrate 1800 2pass
Audio: English AC3 5.1 @448
Sample: yes included

 
http://www.imdb.com/title/tt1661099/


General
Format                           : AVI
Format/Info                      : Audio Video Interleave
File size                        : 1.43 GiB
Duration                         : 1h 29mn
Overall bit rate                 : 2 280 Kbps
Writing application              : Nandub v1.0rc2
Writing library                  : Nandub build 1853/release

Video
ID                               : 0
Format                           : MPEG-4 Visual
Format profile                   : Advanced Simple@L5
Format settings, BVOP            : 1
Format settings, QPel            : Yes
Format settings, GMC             : No warppoints
Format settings, Matrix          : Default (H.263)
Muxing mode                      : Packed bitstream
Codec ID                         : XVID
Codec ID/Hint                    : XviD
Duration                         : 1h 29mn
Bit rate                         : 1 823 Kbps
Width                            : 720 pixels
Height                           : 304 pixels
Display aspect ratio             : 2.35:1
Frame rate                       : 23.976 fps
Color space                      : YUV
Chroma subsampling               : 4:2:0
Bit depth                        : 8 bits
Scan type                        : Progressive
Compression mode                 : Lossy
Bits/(Pixel*Frame)               : 0.347
Stream size                      : 1.14 GiB (80%)
Writing library                  : XviD 1.2.1 (UTC 2008-12-04)

Audio
ID                               : 1
Format                           : AC-3
Format/Info                      : Audio Coding 3
Mode extension                   : CM (complete main)
Codec ID                         : 2000
Duration                         : 1h 29mn
Bit rate mode                    : Constant
Bit rate                         : 448 Kbps
Channel(s)                       : 6 channels
Channel positions                : Front: L C R, Side: L R, LFE
Sampling rate                    : 48.0 KHz
Bit depth                        : 16 bits
Compression mode                 : Lossy
Stream size                      : 288 MiB (20%)
Alignment                        : Split accross interleaves
Interleave, duration             : 42 ms (1.00 video frame)
Interleave, preload duration     : 500 ms


Plot:


A jaded call-girl. A fledgling hooker. The night from hell. 
'X' is a sizzling adults-only thriller about love, chance, 
escape and the oldest profession experienced by two women, 
on a night that will change their lives forever.


Cast:


Viva Bianca           ...   Holly Rowe
Wayne Blair           ...   Bob
Peter Docker          ...   Ligurian
Hanna Mangan Lawrence ...   Shay Ryan


Screens:

 
http://www.pix2links.com/images/68093806786074264217.png
    	 
http://www.pix2links.com/images/17448201536424422854.png
    	 
http://www.pix2links.com/images/96114300457158745490.png


ENJOY!